<svg id="Layer_1" data-name="Layer 1" xmlns="http://www.w3.org/2000/svg" viewBox="0 0 499.51 86.87"><defs><style>.cls-1{fill:#39b54a;}.cls-2{fill:blue;}.cls-2,.cls-3,.cls-4{stroke:#000;stroke-miterlimit:10;}.cls-4{fill:#ed1c24;}.cls-5{fill:#75a928;}.cls-6{fill:#bc1142;}</style></defs><title>GarduinoPiName1</title><path class="cls-1" d="M131.17,231.06a33.32,33.32,0,0,0-9.91-9.71q-5.42-3.28-14.7-3.28-12.6,0-19.24,10-5.46,8.4-5.46,20.12a40,40,0,0,0,3.66,17.19q3.66,7.82,9.62,11.43a23.33,23.33,0,0,0,12.2,3.61,26.73,26.73,0,0,0,7-.93q3.41-.93,6.69-6.3a23.17,23.17,0,0,0,3.17-12.6,55.39,55.39,0,0,0-.78-10.15,6.14,6.14,0,0,0-2.93-4.2c-1.5-.85-4.23-.88-8.21-.1q5.19-5.07,10.16-2.83t7,15.53q2.06,13.27,11,17.57-15.63,4.5-21.1,5.91a48,48,0,0,1-12.11,1.42q-19.23,0-29.19-12.31a32.54,32.54,0,0,1-7.52-21.29,35.55,35.55,0,0,1,4.19-16.69A36.28,36.28,0,0,1,88.5,218.76a33.93,33.93,0,0,1,17.18-4.2,34.42,34.42,0,0,1,6.6.58,61.71,61.71,0,0,1,8.35,2.54Q128.82,221.3,131.17,231.06Zm-4.29,12.11q-6.45-2.14-7.33-6.44a7.09,7.09,0,0,0-4.39-5.67q8.79.19,10.74,3.32T126.88,243.17Zm3.51,6.25q-.78-6.24,2-9.08t9.77-3c-3.12,2.48-4.66,4.92-4.59,7.33S135.21,248.64,130.39,249.42Z" transform="translate(-70.63 -196.83)"/><path class="cls-1" d="M185.86,276q-1,5.67-4.79,6c-2.53.2-4.36-.32-5.46-1.56a18,18,0,0,1-3-5.18,17.09,17.09,0,0,1-6.64,4.69,21.94,21.94,0,0,1-8.2,1.56,17.46,17.46,0,0,1-10.55-3.12,10.43,10.43,0,0,1-4.3-9A12,12,0,0,1,146.8,260a20.91,20.91,0,0,1,8.59-4.79,22.12,22.12,0,0,1,9.18-.58,15,15,0,0,1,8.4,4.59q1.56-9-1.17-13.19c-1.83-2.79-3.84-4.62-6.06-5.47a16,16,0,0,0-7.81-.68c-3,.39-4.69,1.37-5.08,2.93s-.26,2.48.39,2.74a1.87,1.87,0,0,0,1.76-.1q.78-.49,1.17-2.64c.91,2.87.72,4.75-.58,5.66a5.26,5.26,0,0,1-4.69.59q-2.73-.78-3.71-4.69t2.63-7.22q3.62-3.33,13-3.32,9.76,1.56,13.68,5.86t3.9,11.32q-2.34,22.47-1.66,24.71a3.45,3.45,0,0,0,2.74,2.64C182.83,278.59,184.3,277.81,185.86,276ZM171.8,265.83q-1.56-4.69-5.18-5.76a11.82,11.82,0,0,0-7.62.39,14.23,14.23,0,0,0-5.76,3.41,6.79,6.79,0,0,0-1.75,4.69,5.62,5.62,0,0,0,1.75,4.1,7.13,7.13,0,0,0,5.28,1.76,17.84,17.84,0,0,0,7.61-1.95A10.73,10.73,0,0,0,171.8,265.83Zm14.84,7.42q-3.51-2.34-3.71-4.3t2.54-6.25c1.56,1.83,2.28,3.32,2.15,4.49S187.16,270.39,186.64,273.25Zm2,1.56q2-2.73,3.91-2.73a15.37,15.37,0,0,0,5.08-1.17q-2.73,4.68-5.27,5.46A2.81,2.81,0,0,1,188.59,274.81Z" transform="translate(-70.63 -196.83)"/><path class="cls-1" d="M200.9,273.93c-.65.2-1.5-.42-2.54-1.85a4.39,4.39,0,0,1,2.73-.78,5.19,5.19,0,0,1,2.35,1.56A16.32,16.32,0,0,1,200.9,273.93Zm6.64-35.45a6.82,6.82,0,0,0-5.08.39,4.45,4.45,0,0,0-2.54,3.91q2.36-2.15,3.91-2.15A4.77,4.77,0,0,1,207,242a8.54,8.54,0,0,1,2.35,4.39q.78,3,.19,14.65T207,274.81l-2.34-2.34c.78,3,.52,5.31-.78,6.93q-1.67,1.08-5.08,2.83H221.7c-2-1.17-3.56-2.05-4.64-2.63a4.87,4.87,0,0,1-2.2-2.15,37.26,37.26,0,0,1-2.19-7.37,28.23,28.23,0,0,1,.53-12.75q1.77-7.32,4-10.89a11.76,11.76,0,0,1,4.69-4.68,4.27,4.27,0,0,1,4.29,0c1.24.79,1.6,2.25,1.08,4.4a4,4,0,0,0,3-1.32,4.52,4.52,0,0,0,1.27-3.27,5,5,0,0,0-1.75-3.76,6.25,6.25,0,0,0-4.4-1.61q-6,0-11.52,10.06Q210.27,239.27,207.54,238.48ZM204.61,268q.78-1-.39-4.11-2.73,1.77-2.54,3.42c.13,1.11,1,2.44,2.54,4C204,269.73,204.09,268.63,204.61,268Z" transform="translate(-70.63 -196.83)"/><path class="cls-1" d="M263.69,277.16a21.07,21.07,0,0,1-6.35,5,15.75,15.75,0,0,1-6.73,1.46q-7.34,0-12.8-6.1t-5.47-15.77a28.27,28.27,0,0,1,6.06-17.53q6.06-8,15.53-8a13.21,13.21,0,0,1,9.76,3.81v-8.4a62.94,62.94,0,0,0-.39-9.38,4.2,4.2,0,0,0-1.17-2.39,3,3,0,0,0-1.95-.63,13.68,13.68,0,0,1-4-1,12.65,12.65,0,0,1,10.74-.1q0-5.07,5.08-10.55a208.57,208.57,0,0,0-4.49,30.08,134.55,134.55,0,0,0,.59,26.37q1.56,12.3,3.81,12.7a21.45,21.45,0,0,0,3.32.39,10.61,10.61,0,0,0,3.51-.79Q269.27,290.44,263.69,277.16Zm-1.07-26.57c-1.43-5.72-2.95-9.05-4.54-10a9.53,9.53,0,0,0-4.74-1.36c-2.8,0-5.34,1.26-7.62,3.8q-4.4,5.09-4.39,14.85t4.3,15.09q4.29,5.22,9.47,5.22,4.48,0,6.59-6.79T262.62,250.59Zm6.64-43.36q-1.56-5.85-3.32-6.44a19.61,19.61,0,0,0-5.67-.59,15.62,15.62,0,0,0,2.35,4.49C263.4,205.61,265.61,206.45,269.26,207.23Zm3.51-.39c-.52-3.38-.39-5.6.39-6.64s2.74-1.95,5.86-2.73c-.78,3.12-1.49,5.08-2.14,5.86A27.67,27.67,0,0,1,272.77,206.84Z" transform="translate(-70.63 -196.83)"/><path class="cls-1" d="M318,241.61q2.73,4.09,1.17,11.91T318,265.05a21,21,0,0,0,1.56,6.34A10.43,10.43,0,0,0,321.8,275c.71.62,1.33,1.14,1.85,1.56a3.19,3.19,0,0,0,2.1.64,8.35,8.35,0,0,0,3.18-.79q-5.87,8.4-9.48,4.69c-2.41-2.47-4.26-3.16-5.56-2.05a19.88,19.88,0,0,1-6.84,3.13,29.73,29.73,0,0,1-8.2,1.46,15.79,15.79,0,0,1-7.28-1.76,11.15,11.15,0,0,1-5.22-6.15,17.2,17.2,0,0,1-.39-10.35q1.37-6,2.44-11.72t.29-8.5a6.65,6.65,0,0,0-4-5.27q-1.37-.67-4.88-2.34,9.85.19,12,4.88l.39-2.73a25.12,25.12,0,0,1,2.15,16.5,70.33,70.33,0,0,0-1.76,11.23q.19,5.28,2.83,7.81c1.76,1.7,4.26,2.51,7.52,2.44a11.16,11.16,0,0,0,4.74-1.31,25,25,0,0,0,6.3-5,22.87,22.87,0,0,1-.2-16.12q2.83-8.3,2.34-10.64a5.7,5.7,0,0,0-2.73-3.76,13.15,13.15,0,0,0-6.64-1.51Q315.64,238.88,318,241.61Zm-25.78-2.74a15.7,15.7,0,0,1-1.17-4.1c0-.65,1.17-1.62,3.51-2.93a15.32,15.32,0,0,1-.1,4.2A7.12,7.12,0,0,1,292.21,238.87Z" transform="translate(-70.63 -196.83)"/><path class="cls-1" d="M366.59,246q9.29-9.27,16.41-9.27a10.82,10.82,0,0,1,6.25,1.8,12.13,12.13,0,0,1,4.2,6,28.08,28.08,0,0,1,1.07,9q-7.62,19.83-6.44,22.86t2.73,3.71a3.77,3.77,0,0,0,3.32-.2q1.75-.87,2.54-5c.78,3.65.29,5.89-1.46,6.74a7,7,0,0,1-4.69.78c-1.37-.32-2.9-1.53-4.59-3.61s-1.56-7.46.39-16.12,1.94-14.16-.05-16.5a8.78,8.78,0,0,0-6.79-3.52A15.61,15.61,0,0,0,369,246.74q-4.74,4.09-5.82,11.62t.59,11.81a28.72,28.72,0,0,0,3.57,6.84,12.53,12.53,0,0,0,3.07,3.22q1.17.69,4.88,2.44H353q4.39-1.76,5.61-3.51c.82-1.17,1.22-3.39,1.22-6.64a26.86,26.86,0,0,1-1.07-12.5,31.19,31.19,0,0,1,3.32-10.26q2.34-4.2,1.17-5.95a3.91,3.91,0,0,0-2.73-2c-1-.13-2,.72-2.93,2.54q1-4.68,7-3.12C365.68,238.53,366.33,240.1,366.59,246Zm29.69,28.91a12.49,12.49,0,0,0-2.73-2.73c-.53-.26-1.44,0-2.74.78a12.78,12.78,0,0,1,1.95,1.56C393.29,275,394.46,275.12,396.28,274.86Zm.39-.78c-1-1.56-1.53-2.73-1.46-3.52a13.75,13.75,0,0,0-.1-2.73c1.56.52,2.41,1.3,2.54,2.34A7.16,7.16,0,0,1,396.67,274.08Z" transform="translate(-70.63 -196.83)"/><path class="cls-1" d="M338.17,225.59q-1,8.21,2.84,18t2.05,28.52a16.16,16.16,0,0,0,.63,5.61,4.38,4.38,0,0,0,1.81,2.1q1.17.69,4.39,2.44H328.11c2.22-1.17,3.7-2,4.45-2.39a4.24,4.24,0,0,0,1.76-2.1c.42-1,1.36-4.38,2.83-10.2s2-10.76,1.51-14.8-1.56-6.72-3.32-8.05-3.08-2-3.95-2a12.76,12.76,0,0,1-4-1q8.4-1.08,11.91,1.46A31.46,31.46,0,0,1,338.17,225.59Z" transform="translate(-70.63 -196.83)"/><path class="cls-1" d="M424.92,235.75q6.34.5,13.28,7.81a28.37,28.37,0,0,1,1.52,27.64,20.38,20.38,0,0,1-19.19,12.4A20.08,20.08,0,0,1,404.22,276a31.87,31.87,0,0,1-5.47-14.84,26.21,26.21,0,0,1,2.93-13.38,21.53,21.53,0,0,1,8.59-8.79Q415.75,236,424.92,235.75Zm3.13,1.17q-8.79,1-13.38,4.3a19.57,19.57,0,0,0-6.54,7.52,24.09,24.09,0,0,0-2,10.25,17.34,17.34,0,0,0,3.42,10.65,15.38,15.38,0,0,0,9.67,5.86A18.36,18.36,0,0,0,431.17,274q5.67-2.73,7.91-10.25a22.7,22.7,0,0,0-6.34-23.93Q428.44,236.15,428.05,236.92Zm8.2,8.2q-2-3.31-4.3-3.71a11.52,11.52,0,0,0-5.86,1c2.48.52,3.94,1,4.4,1.56S432.86,244.87,436.25,245.12Zm-3.91-7q-3.51-2.34-3.51-3.9a16.79,16.79,0,0,1,.78-4.3,23.9,23.9,0,0,0,2.25,3.22C432.57,234,432.74,235.62,432.34,238.09Z" transform="translate(-70.63 -196.83)"/><path class="cls-1" d="M513.89,275.59a24.35,24.35,0,0,0,10.84,6.64H496.41q6.73-1.85,8.1-4t2.74-9.23q1.37-7.12,1.17-28.42t-3.13-23.83q-2.93-2.53-5.76-1.46c-1.89.72-2.7,2.7-2.44,6q-3.7-6.45,2.15-8.5t11.91,5.37a28.09,28.09,0,0,1,12.16-2.34,36.72,36.72,0,0,1,11.43,2,19.48,19.48,0,0,1,8.64,6.2,15.89,15.89,0,0,1,3.51,10.3,17.33,17.33,0,0,1-5.37,13.19q-5.37,5.07-15.13,5.07a28.6,28.6,0,0,0-6.35.79,10.57,10.57,0,0,0-5.27,3.9Q512.13,260.56,513.89,275.59Zm-2.74-60.54q-1.95-7-.19-9.67t8.4-5.18q1.17,6.65-2.25,9A24.19,24.19,0,0,0,511.15,215.05Zm2.74,35.15A20.92,20.92,0,0,1,521.8,248c2.67-.2,4.94-.33,6.83-.39a10.89,10.89,0,0,0,6.16-2.74q3.32-2.64,3.71-8.49t-1.57-9.57a11.34,11.34,0,0,0-5.37-5.28,15.52,15.52,0,0,0-7.32-1.37,13,13,0,0,0-7.81,3.62q-3.91,3.42-5,10.74T513.89,250.2Z" transform="translate(-70.63 -196.83)"/><path class="cls-1" d="M558.42,225.59q-1,8.21,2.83,18t2,28.52q0,4.2.64,5.61a4.37,4.37,0,0,0,1.8,2.1q1.17.69,4.4,2.44H548.36c2.21-1.17,3.69-2,4.44-2.39a4.19,4.19,0,0,0,1.76-2.1c.42-1,1.37-4.38,2.83-10.2s2-10.76,1.52-14.8-1.57-6.72-3.32-8.05-3.08-2-4-2a12.66,12.66,0,0,1-4-1c5.59-.72,9.57-.23,11.91,1.46A31.46,31.46,0,0,1,558.42,225.59Z" transform="translate(-70.63 -196.83)"/><path class="cls-2" d="M310.25,214.66c0,13.43,17.86,18.82,27.6,6.42a1.35,1.35,0,0,1,2.11,0c10,12.82,27.11,6.55,27.11-6.43s-17-19.53-27.08-6.48a1.35,1.35,0,0,1-2.14,0c-9.61-12.9-27.6-6.92-27.6,6.5Zm5.12,0c0-9.91,13.76-13.17,20.46-.67a1.39,1.39,0,0,1,0,1.34c-6.85,11.88-20.44,9.24-20.44-.67Zm26.7.61a1.39,1.39,0,0,1,0-1.21c6.09-12.73,20.37-9,20.21.6C362.27,224.27,348,227.37,342.07,215.27Z" transform="translate(-70.63 -196.83)"/><rect class="cls-3" x="250.03" y="16.39" width="8.48" height="2.72" rx="1.36" ry="1.36"/><path class="cls-4" d="M350,215.94h-.16a1.36,1.36,0,0,1-1.36-1.36v-.16a1.36,1.36,0,0,1,1.36-1.36H350a1.36,1.36,0,0,0,1.36-1.36v-.16a1.36,1.36,0,0,1,1.36-1.36h.16a1.36,1.36,0,0,1,1.36,1.36v.16a1.36,1.36,0,0,0,1.36,1.36h0a1.36,1.36,0,0,1,1.36,1.36v.16a1.36,1.36,0,0,1-1.36,1.36h0a1.36,1.36,0,0,0-1.36,1.36h0a1.36,1.36,0,0,1-1.36,1.36h-.16a1.36,1.36,0,0,1-1.36-1.36h0A1.36,1.36,0,0,0,350,215.94Z" transform="translate(-70.63 -196.83)"/><path d="M546.18,209.21" transform="translate(-70.63 -196.83)"/><path d="M553.23,196.83a.75.75,0,0,0-.47.2,1.1,1.1,0,0,0-1.24.11c-.58-.07-.77.08-.91.26-.13,0-1-.13-1.34.44-.95-.11-1.25.56-.91,1.19a.82.82,0,0,0,.06,1.17c-.16.32-.06.67.32,1.09a.92.92,0,0,0,.45,1c-.07.61.56,1,.75,1.1.07.36.22.7.95.88.11.54.55.63,1,.74a4.55,4.55,0,0,0-2.57,4.47l-.2.36a4.41,4.41,0,0,0-.79,6.6,12.68,12.68,0,0,0,.61,2,4.83,4.83,0,0,0,3,3.85,10,10,0,0,0,2.88,1.64,4.77,4.77,0,0,0,3.55,1.59,7.85,7.85,0,0,0,3.6-1.59,10,10,0,0,0,2.89-1.64,4.81,4.81,0,0,0,3-3.85,11.7,11.7,0,0,0,.61-2,4.4,4.4,0,0,0-.78-6.6l-.2-.36a4.56,4.56,0,0,0-2.57-4.47c.42-.11.85-.2,1-.74.72-.18.87-.52.94-.88.19-.13.82-.49.76-1.1a.93.93,0,0,0,.45-1c.38-.42.48-.77.32-1.09a.83.83,0,0,0,.06-1.17c.34-.63,0-1.3-.92-1.19-.38-.57-1.21-.44-1.33-.44-.15-.18-.34-.33-.92-.26A1.08,1.08,0,0,0,564,197c-.51-.41-.86-.08-1.25,0-.62-.2-.76.08-1.07.19-.68-.14-.89.17-1.21.5h-.38a4.34,4.34,0,0,0-1.72,2.47,4.34,4.34,0,0,0-1.72-2.47h-.38c-.33-.33-.53-.64-1.21-.5-.31-.11-.45-.39-1.08-.19a2.3,2.3,0,0,0-.77-.24" transform="translate(-70.63 -196.83)"/><path class="cls-5" d="M551.19,199.49a18.64,18.64,0,0,1,5.18,3.51c-.45,1.78-2.77,1.86-3.61,1.81a.66.66,0,0,0,.37-.32c-.22-.15-1,0-1.5-.31a.51.51,0,0,0,.39-.24,4.28,4.28,0,0,1-1.35-.55.83.83,0,0,0,.56-.12,5.12,5.12,0,0,1-1.3-.8c.23,0,.48,0,.56-.08a5,5,0,0,1-1-.85c.32,0,.46,0,.54,0a4.08,4.08,0,0,1-.89-1,.64.64,0,0,0,.62,0c-.11-.23-.56-.37-.82-.92a1.51,1.51,0,0,0,.58,0,2.75,2.75,0,0,0-.52-1,7.69,7.69,0,0,0,1.32,0l-.33-.34a2.58,2.58,0,0,1,1.46.15c.17-.14,0-.32-.22-.5a5,5,0,0,1,1.22.31c.19-.18-.13-.36-.29-.53a3,3,0,0,1,1.28.5c.21-.2,0-.38-.13-.55a3,3,0,0,1,1.07.69c.1-.13.25-.23.07-.54a2.51,2.51,0,0,1,.85.75c.23-.15.14-.35.14-.53a7.65,7.65,0,0,1,.93,1,.87.87,0,0,0,.16-.43c.92.89,2.22,3.13.33,4a17.66,17.66,0,0,0-5.63-3h0" transform="translate(-70.63 -196.83)"/><path class="cls-5" d="M565.65,199.49a18.48,18.48,0,0,0-5.18,3.51c.45,1.78,2.76,1.86,3.61,1.81a.63.63,0,0,1-.37-.32c.22-.15,1,0,1.5-.31a.53.53,0,0,1-.4-.24,4.09,4.09,0,0,0,1.35-.55.79.79,0,0,1-.55-.12,5.06,5.06,0,0,0,1.29-.8c-.23,0-.48,0-.55-.08a5.26,5.26,0,0,0,1-.85c-.32,0-.46,0-.54,0a4.08,4.08,0,0,0,.89-1,.64.64,0,0,1-.62,0c.11-.23.55-.37.81-.92a1.46,1.46,0,0,1-.57,0,2.91,2.91,0,0,1,.51-1,7.62,7.62,0,0,1-1.31,0l.33-.34a2.58,2.58,0,0,0-1.46.15c-.17-.14,0-.32.22-.5a5,5,0,0,0-1.22.31c-.19-.18.13-.36.28-.53a3,3,0,0,0-1.27.5c-.21-.21,0-.38.13-.55a3.14,3.14,0,0,0-1.08.69c-.09-.13-.24-.23-.06-.54a2.65,2.65,0,0,0-.86.75c-.23-.15-.13-.35-.13-.53a7.65,7.65,0,0,0-.93,1,.78.78,0,0,1-.16-.43c-.92.89-2.22,3.13-.34,4a17.82,17.82,0,0,1,5.64-3h0" transform="translate(-70.63 -196.83)"/><path class="cls-6" d="M561.72,217.63a3.28,3.28,0,0,1-6.53,0v0a3.28,3.28,0,0,1,6.53,0v0" transform="translate(-70.63 -196.83)"/><path class="cls-6" d="M556.57,209a3.5,3.5,0,1,1-4.36,1.28,3.25,3.25,0,0,1,4.36-1.28" transform="translate(-70.63 -196.83)"/><path class="cls-6" d="M560.22,208.87a3.21,3.21,0,0,0-.55,4.49,3.25,3.25,0,0,0,4.36,1.28,3.51,3.51,0,0,0-3.81-5.77" transform="translate(-70.63 -196.83)"/><path class="cls-6" d="M549.81,210.48c1.46-.39.49,6-.7,5.52a3.48,3.48,0,0,1,.7-5.52" transform="translate(-70.63 -196.83)"/><path class="cls-6" d="M566.68,210.4c-1.46-.39-.49,6,.7,5.52a3.49,3.49,0,0,0-.7-5.52" transform="translate(-70.63 -196.83)"/><path class="cls-6" d="M561.72,205.61c2.52-.42,4.62,1.07,4.53,3.81-.08,1-5.46-3.65-4.53-3.81" transform="translate(-70.63 -196.83)"/><path class="cls-6" d="M554.76,205.53c-2.52-.42-4.62,1.07-4.54,3.81.09,1,5.47-3.65,4.54-3.81" transform="translate(-70.63 -196.83)"/><path class="cls-6" d="M558.38,204.89c-1.51,0-3,1.12-3,1.79s1.19,1.65,3,1.67,3-.67,3-1.51-1.65-2-3-2h0" transform="translate(-70.63 -196.83)"/><path class="cls-6" d="M558.47,221.59c1.31-.05,3.07.43,3.07,1.06s-1.59,2-3.16,2-3.21-1.33-3.19-1.81c0-.71,2-1.27,3.28-1.24" transform="translate(-70.63 -196.83)"/><path class="cls-6" d="M553.63,217.82c.93,1.13,1.35,3.1.58,3.69-.74.44-2.53.26-3.8-1.57-.86-1.53-.75-3.09-.15-3.55.9-.55,2.29.19,3.37,1.43h0" transform="translate(-70.63 -196.83)"/><path class="cls-6" d="M563.13,217.47c-1,1.18-1.58,3.34-.84,4,.7.54,2.6.47,4-1.47a3.71,3.71,0,0,0,.1-4.06c-.86-.66-2.1.19-3.25,1.5h0" transform="translate(-70.63 -196.83)"/></svg>